<?xml version="1.0" standalone="no"?>
<!DOCTYPE svg PUBLIC "-//W3C//DTD SVG 20010904//EN"
 "http://www.w3.org/TR/2001/REC-SVG-20010904/DTD/svg10.dtd">
<svg version="1.0" xmlns="http://www.w3.org/2000/svg"
 width="300.000000pt" height="238.000000pt" viewBox="0 0 300.000000 238.000000"
 preserveAspectRatio="xMidYMid meet">
<metadata>
Created by potrace 1.10, written by Peter Selinger 2001-2011
</metadata>
<g transform="translate(0.000000,238.000000) scale(0.100000,-0.100000)"
fill="#000000" stroke="none">
<path d="M54 2361 c-17 -11 -36 -34 -43 -52 -16 -45 -16 -1896 0 -1971 35
-161 166 -294 326 -328 32 -7 433 -10 1193 -8 l1145 3 75 36 c126 60 211 166
239 297 8 37 11 336 11 998 0 855 -2 949 -16 980 -33 69 73 64 -1486 64 -1371
0 -1414 -1 -1444 -19z m1998 -763 l-552 -553 -552 553 -553 552 1105 0 1105 0
-553 -552z m-1450 17 c906 -899 849 -845 898 -845 l44 0 246 243 c135 133 409
405 610 604 l365 362 3 -787 c2 -537 -1 -799 -8 -824 -14 -50 -56 -97 -105
-119 -38 -18 -95 -19 -1153 -19 -982 0 -1117 2 -1150 15 -49 21 -81 52 -103
100 -18 38 -19 84 -19 839 0 440 2 797 4 795 3 -2 168 -166 368 -364z"/>
</g>
</svg>
