<?xml version="1.0" standalone="no"?>
<!DOCTYPE svg PUBLIC "-//W3C//DTD SVG 20010904//EN"
 "http://www.w3.org/TR/2001/REC-SVG-20010904/DTD/svg10.dtd">
<svg version="1.0" xmlns="http://www.w3.org/2000/svg"
 width="300.000000pt" height="300.000000pt" viewBox="0 0 300.000000 300.000000"
 preserveAspectRatio="xMidYMid meet">
<metadata>
Created by potrace 1.10, written by Peter Selinger 2001-2011
</metadata>
<g transform="translate(0.000000,300.000000) scale(0.100000,-0.100000)"
fill="#000000" stroke="none">
<path d="M875 2809 c-176 -25 -341 -114 -470 -251 -103 -109 -174 -241 -206
-384 -20 -86 -20 -1262 0 -1348 35 -156 106 -281 226 -401 96 -96 159 -139
276 -186 141 -57 187 -61 842 -56 633 4 628 4 760 57 113 46 177 90 272 185
120 120 191 245 226 401 20 86 20 1262 0 1348 -35 156 -106 281 -226 401 -117
117 -235 185 -390 225 -60 16 -1212 24 -1310 9z m1257 -210 c173 -36 343 -171
417 -330 21 -46 44 -108 50 -137 15 -73 15 -1191 0 -1264 -36 -173 -171 -343
-330 -417 -46 -21 -108 -44 -137 -50 -73 -15 -1191 -15 -1264 0 -173 36 -343
171 -417 330 -21 46 -44 108 -50 137 -15 73 -15 1191 0 1264 6 29 29 91 50
137 72 155 233 286 403 327 69 17 1200 19 1278 3z"/>
<path d="M2195 2366 c-55 -24 -85 -71 -85 -129 0 -149 183 -201 260 -74 38 62
17 152 -44 192 -35 23 -95 28 -131 11z"/>
<path d="M1380 2220 c-158 -30 -274 -92 -391 -209 -96 -96 -147 -179 -187
-299 -21 -65 -25 -97 -26 -212 -1 -116 2 -146 22 -210 82 -261 285 -456 537
-515 99 -24 259 -22 358 4 256 67 461 273 528 530 26 97 28 257 4 356 -58 250
-253 454 -510 535 -78 24 -256 35 -335 20z m254 -211 c176 -34 347 -205 390
-389 92 -388 -256 -736 -644 -644 -183 43 -349 208 -390 389 -18 80 -14 211 9
286 25 81 82 169 147 230 135 125 292 166 488 128z"/>
</g>
</svg>
