<?xml version="1.0" standalone="no"?>
<!DOCTYPE svg PUBLIC "-//W3C//DTD SVG 20010904//EN"
 "http://www.w3.org/TR/2001/REC-SVG-20010904/DTD/svg10.dtd">
<svg version="1.0" xmlns="http://www.w3.org/2000/svg"
 width="295.000000pt" height="294.000000pt" viewBox="0 0 295.000000 294.000000"
 preserveAspectRatio="xMidYMid meet">
<metadata>
Created by potrace 1.10, written by Peter Selinger 2001-2011
</metadata>
<g transform="translate(0.000000,294.000000) scale(0.100000,-0.100000)"
fill="#000000" stroke="none">
<path d="M1189 2875 c-512 -83 -851 -364 -966 -803 -32 -123 -41 -339 -20
-477 l14 -90 -47 -52 c-55 -60 -76 -125 -67 -204 10 -78 57 -153 119 -185 l27
-14 -30 -65 c-65 -143 -91 -362 -60 -495 26 -105 56 -156 127 -206 130 -93
283 -134 392 -105 51 14 116 70 143 123 11 21 21 38 23 38 2 0 30 -12 62 -26
144 -64 337 -97 559 -98 220 0 414 34 559 98 33 15 60 25 61 24 1 -2 11 -19
23 -39 55 -91 121 -129 227 -129 148 0 340 103 396 212 71 139 65 385 -15 585
l-33 83 32 19 c61 36 115 134 115 211 0 60 -32 134 -76 179 l-44 44 10 56 c6
31 13 108 17 171 26 501 -262 924 -741 1085 -165 55 -244 67 -491 71 -164 2
-255 -1 -316 -11z m525 -180 c495 -74 825 -354 870 -740 l6 -50 -33 76 c-98
223 -238 365 -470 474 -177 84 -363 119 -632 118 -205 -1 -356 -23 -506 -73
-284 -95 -509 -285 -620 -524 -24 -53 -28 -57 -28 -31 -1 53 29 158 65 231
125 254 433 449 809 513 145 25 395 27 539 6z m-938 -646 c38 -42 191 -136
297 -182 341 -149 748 -234 1372 -285 l90 -7 3 -67 3 -68 42 0 c121 0 192
-122 136 -236 -23 -49 -82 -84 -141 -84 l-36 0 -6 -57 c-11 -98 -27 -155 -66
-238 -117 -252 -391 -437 -741 -501 -130 -24 -390 -23 -524 0 -154 27 -323 88
-430 155 -223 140 -360 345 -381 572 l-7 69 -36 0 c-53 0 -121 38 -143 80 -36
69 -16 169 43 211 16 11 52 24 79 28 60 10 165 77 229 147 103 111 168 259
178 407 3 42 9 77 13 77 4 0 15 -9 26 -21z"/>
<path d="M810 1537 c-55 -26 -89 -59 -114 -109 -102 -205 126 -412 321 -292
134 83 137 286 5 378 -37 26 -53 31 -115 33 -41 1 -83 -3 -97 -10z"/>
<path d="M1933 1529 c-86 -42 -127 -117 -121 -220 4 -82 36 -135 104 -175 94
-55 200 -42 275 35 92 95 91 228 -2 319 -17 17 -47 38 -64 47 -48 22 -141 19
-192 -6z"/>
<path d="M1060 777 c0 -32 49 -98 105 -141 172 -131 391 -139 570 -20 66 44
135 125 135 160 0 33 -15 31 -111 -20 -106 -57 -181 -77 -289 -77 -122 -1
-259 40 -353 106 -33 23 -57 19 -57 -8z"/>
</g>
</svg>
